PathFileType	4	(X/Y/Z)	C:/Users/opensim2020/Desktop/walking_exp_matlab/subject03_walking14_straight_02.trc	
DataRate	CameraRate	NumFrames	NumMarkers	Units	OrigDataRate	OrigDataStartFrame	OrigNumFrames	
100.00	100.00	7	47	mm	100.00	1191	168	
Frame#	Time	LFHD			RFHD			LBHD			RBHD			C7			T10			CLAV			STRN			RBAK			LSHO			LUPA			LELB			LFRM			LWRA			LWRB			LFIN			RSHO			RUPA			RELB			RFRM			RWRA			RWRB			RFIN			LASI			RASI			LPSI			RPSI			LTHI			LKNE			LTIB			LANK			LHEE			LTOE			RTHI			RKNE			RTIB			RANK			RHEE			RTOE			*39			*40			*41			*42			*43			*44			*45			*46			
		X1	Y1	Z1	X2	Y2	Z2	X3	Y3	Z3	X4	Y4	Z4	X5	Y5	Z5	X6	Y6	Z6	X7	Y7	Z7	X8	Y8	Z8	X9	Y9	Z9	X10	Y10	Z10	X11	Y11	Z11	X12	Y12	Z12	X13	Y13	Z13	X14	Y14	Z14	X15	Y15	Z15	X16	Y16	Z16	X17	Y17	Z17	X18	Y18	Z18	X19	Y19	Z19	X20	Y20	Z20	X21	Y21	Z21	X22	Y22	Z22	X23	Y23	Z23	X24	Y24	Z24	X25	Y25	Z25	X26	Y26	Z26	X27	Y27	Z27	X28	Y28	Z28	X29	Y29	Z29	X30	Y30	Z30	X31	Y31	Z31	X32	Y32	Z32	X33	Y33	Z33	X34	Y34	Z34	X35	Y35	Z35	X36	Y36	Z36	X37	Y37	Z37	X38	Y38	Z38	X39	Y39	Z39	X40	Y40	Z40	X41	Y41	Z41	X42	Y42	Z42	X43	Y43	Z43	X44	Y44	Z44	X45	Y45	Z45	X46	Y46	Z46	X47	Y47	Z47	

148	1.470	-902.33228	-707.99030	1601.14380	-1034.72998	-699.14215	1613.23340	-904.85400	-589.10614	1536.50757	-1034.78552	-585.62531	1548.54871	-964.68341	-578.01843	1384.66296	-957.89471	-567.08026	1072.18298	-976.44073	-705.32953	1318.09595	-978.10480	-761.07813	1156.58252	-1056.03491	-529.40863	1207.32581	-814.61469	-671.94843	1352.17688	-745.02911	-643.83179	1153.86694	-733.27667	-630.77802	1031.24683	-728.75140	-624.38287	899.98718	-754.27063	-604.22253	778.68732	-700.58423	-590.14661	793.50226	-711.65442	-552.80347	712.75214	-1130.00452	-641.72412	1338.15210	-1214.93542	-700.44708	1133.51746	-1234.37292	-759.91071	1041.02832	-1236.24280	-855.65070	944.69006	-1204.03259	-942.03473	898.53589	-1238.75806	-918.27795	865.90912	-1237.26697	-986.07471	840.42633	-868.82043	-756.84619	918.37976	-1103.13562	-710.16406	914.66254	-883.85425	-588.17438	930.06238	-1030.36353	-560.81067	943.14191	-821.30798	-793.01935	626.66840	-869.30060	-858.01508	469.32809	-867.52100	-860.17169	269.11719	-903.40198	-896.60699	64.23481	-939.21844	-858.33984	27.68348	-930.00165	-1043.26318	43.44184	-1134.21704	-604.38556	628.46088	-1105.95093	-581.24365	448.08362	-1096.48816	-450.68369	299.78354	-1039.08655	-323.26163	126.91107	-984.71460	-273.97592	122.02545	-1021.50336	-432.71060	29.46052	-946.34357	-614.00543	1649.10889																					 
149	1.480	-901.52765	-719.80621	1601.67456	-1033.75232	-711.13904	1613.87537	-904.03357	-601.39130	1536.74243	-1033.84363	-597.80957	1548.88599	-962.82733	-590.41150	1384.50354	-956.70300	-581.31091	1071.76514	-975.80231	-717.83142	1318.64941	-978.02539	-774.43628	1157.41846	-1053.79321	-542.05103	1206.66028	-813.64850	-685.64551	1352.44824	-743.67889	-658.02777	1154.21143	-731.87506	-643.98199	1031.33215	-727.43237	-637.03003	900.34796	-752.96289	-616.15442	779.13293	-698.91467	-602.54260	793.88452	-710.32800	-563.52905	713.74219	-1128.90637	-653.02448	1338.23730	-1213.22815	-711.75836	1133.22559	-1232.90137	-770.72693	1040.66638	-1234.93457	-866.90015	944.90765	-1203.20459	-953.87457	900.19336	-1237.05920	-930.11969	866.61029	-1236.42761	-998.43988	842.79865	-868.87506	-772.17468	918.94788	-1102.73389	-724.51282	914.48199	-882.32947	-604.09283	930.80359	-1029.41858	-575.65784	942.71558	-820.00604	-805.77252	627.01459	-867.80078	-871.67285	469.61902	-865.12860	-872.41217	270.45636	-901.89575	-902.22418	63.93537	-937.61719	-861.20410	30.22307	-929.57141	-1048.24780	37.21107	-1135.15454	-621.06274	627.24664	-1109.04370	-599.67072	446.54709	-1098.22852	-464.16824	302.73987	-1039.84460	-331.11514	134.62411	-984.67902	-283.10034	132.74496	-1021.60175	-433.83237	29.41131	-945.03662	-625.79694	1649.05676																					 
150	1.490	-900.65759	-732.07220	1602.24634	-1032.79956	-723.15283	1614.45374	-902.89276	-613.67572	1537.36426	-1032.87842	-609.86523	1549.68701	-960.78326	-603.12909	1384.67102	-955.47943	-595.40082	1071.58240	-975.11670	-730.33331	1319.43127	-977.72821	-787.79706	1158.47461	-1051.51099	-554.79120	1206.00696	-812.71191	-699.18420	1353.04456	-742.74579	-672.49060	1154.74121	-730.86877	-658.37195	1032.09424	-726.22638	-650.35596	900.94482	-751.54974	-628.78503	780.05939	-697.26489	-615.62134	794.61511	-708.86609	-575.66797	714.63062	-1127.91516	-664.29199	1338.57581	-1211.57214	-722.82281	1133.16431	-1231.39880	-781.13373	1040.34705	-1233.50183	-877.55591	945.01001	-1202.08850	-964.97754	901.27197	-1235.28369	-941.16309	867.05719	-1235.12268	-1009.64789	844.06732	-869.08752	-787.41876	920.08313	-1102.11694	-738.90448	914.61310	-881.41821	-619.32220	932.10327	-1028.64758	-590.36078	942.54810	-818.18359	-817.44452	626.93237	-866.62463	-885.77844	470.56729	-863.65961	-883.15521	270.98117	-902.07538	-904.60950	63.31993	-937.30524	-862.29999	30.86207	-927.78723	-1052.36292	35.18409	-1136.27319	-638.31946	626.11749	-1112.95142	-619.56586	445.06134	-1100.19788	-479.17804	305.83878	-1040.50110	-340.91028	142.90337	-984.22748	-294.65594	144.23738	-1021.63458	-435.09921	29.39598	-944.10437	-637.74127	1649.87573																					 
151	1.500	-899.76263	-744.53534	1602.77649	-1032.19995	-735.33636	1615.03271	-901.96893	-625.74512	1538.17578	-1031.77527	-621.79218	1550.44604	-959.88904	-615.60211	1385.08838	-953.88916	-609.32690	1071.74548	-974.42096	-742.84271	1320.22595	-977.28986	-801.23676	1159.64978	-1049.26221	-567.47870	1205.63391	-811.92059	-712.60419	1353.87439	-741.92493	-687.32697	1155.41272	-729.98981	-672.77911	1032.91382	-725.21075	-664.27405	901.87451	-750.07947	-642.20343	781.05322	-695.68518	-629.51654	795.52655	-707.27972	-589.21973	715.46454	-1126.88806	-675.59363	1339.18469	-1209.98230	-733.54572	1133.19800	-1229.71497	-791.32672	1040.23633	-1231.95239	-887.77423	945.03680	-1200.83081	-975.40985	901.67755	-1233.48291	-951.41742	867.18042	-1233.94727	-1020.02692	844.58118	-869.37604	-802.26556	921.72571	-1101.35754	-753.29327	914.99988	-880.39185	-634.15271	933.70380	-1027.89539	-604.81824	942.31482	-816.63330	-829.13318	627.19708	-866.06970	-899.89502	471.46576	-862.76508	-892.20166	270.96643	-902.60199	-904.99573	64.07008	-937.50781	-862.99738	31.32003	-928.41461	-1054.25122	33.91485	-1137.75879	-656.18463	624.96124	-1117.39063	-640.58417	443.59930	-1102.41626	-495.63489	309.22525	-1041.24451	-352.89044	151.36803	-983.71423	-309.01138	155.97934	-1021.76691	-436.44604	29.44830	-943.29297	-650.09113	1650.54395																					 
152	1.510	-899.09436	-756.64557	1603.32800	-1031.43225	-747.31445	1615.54016	-901.09534	-637.75989	1539.01953	-1030.86511	-633.75092	1551.10352	-958.16064	-628.23590	1385.35547	-952.40021	-623.13849	1072.03955	-973.77728	-755.33820	1321.04663	-976.91272	-814.40887	1160.83252	-1047.21228	-580.15900	1205.45764	-811.23798	-725.93994	1354.85291	-741.01685	-702.32574	1156.34253	-729.04645	-687.30023	1033.77930	-724.19934	-678.78894	902.88190	-748.69812	-656.42072	782.10699	-694.23486	-644.17523	796.52722	-705.55865	-604.14478	716.19202	-1125.84595	-686.92462	1339.92480	-1208.40210	-744.05164	1133.34473	-1227.93933	-801.28241	1040.16431	-1230.34790	-897.57764	944.92841	-1199.50549	-985.27435	901.61499	-1231.82971	-960.98444	866.93671	-1232.99976	-1029.73254	844.33826	-869.47137	-816.40161	923.51892	-1100.38843	-767.43121	915.51501	-879.99677	-648.22186	935.52075	-1027.54919	-618.75452	942.19806	-816.15924	-842.23517	628.51752	-865.92749	-913.36884	472.39368	-861.74683	-899.60199	271.35379	-903.05066	-906.00995	64.35403	-937.24249	-863.48663	31.61898	-930.10742	-1055.72522	32.66476	-1139.64990	-674.67389	623.65851	-1121.63452	-662.67413	442.12778	-1104.81580	-513.87048	312.61572	-1042.48730	-367.50616	159.25516	-983.84308	-326.13843	167.41684	-1021.55316	-438.73123	29.92662	-942.37256	-662.55475	1651.64844																					 
153	1.520	-898.35193	-768.62231	1603.99597	-1030.71033	-759.27124	1616.00110	-900.15253	-649.78412	1539.85010	-1029.86169	-645.57025	1551.74585	-957.31403	-640.39899	1385.66809	-951.30634	-636.31927	1072.50415	-973.18018	-767.81274	1321.80774	-976.53973	-827.49176	1161.84814	-1045.43042	-592.72870	1205.35400	-810.68311	-739.36896	1355.89136	-740.11676	-717.05621	1157.33142	-728.37592	-702.41364	1034.80469	-723.27747	-693.85474	903.93353	-747.47858	-671.47009	783.18268	-692.91211	-659.68774	797.43610	-703.76428	-620.42163	716.66046	-1124.90613	-698.10309	1340.83557	-1207.04468	-754.25824	1133.45093	-1226.13123	-810.99463	1040.11157	-1228.73291	-906.89471	944.51923	-1198.10742	-994.45551	900.67749	-1230.32263	-969.90369	866.14935	-1231.71045	-1038.37830	842.95215	-869.23450	-830.08618	925.45844	-1099.26221	-781.27783	916.04474	-880.13501	-661.45319	937.49121	-1027.41968	-632.33990	942.06073	-815.93616	-857.93420	631.19623	-865.59735	-925.37518	472.81335	-860.79944	-906.50024	271.92661	-903.10956	-906.23334	64.65189	-937.00763	-863.68365	31.72027	-929.93616	-1056.34229	31.93424	-1141.21777	-693.39008	622.14752	-1125.05859	-685.55084	440.71243	-1107.04468	-534.17627	315.46484	-1044.32983	-384.73718	165.83147	-985.17395	-345.35284	178.56168	-1020.72870	-440.92206	30.10160	-941.93628	-674.93146	1652.48608																					 
154	1.530	-897.54871	-780.76257	1604.42981	-1029.96912	-771.11450	1616.43103	-899.22552	-661.65472	1540.43201	-1029.02466	-657.39984	1552.36377	-956.09973	-652.50092	1385.89624	-950.46100	-649.52722	1072.80261	-972.64294	-780.19354	1322.49304	-976.26001	-840.34308	1162.74878	-1043.90906	-605.10687	1205.44348	-810.20709	-752.80920	1356.83875	-739.11969	-731.65839	1158.29736	-727.45465	-717.42810	1035.78735	-722.46350	-709.26678	904.83551	-746.29895	-687.25824	783.94342	-691.67548	-675.99298	798.25555	-701.94604	-637.97351	716.89832	-1123.87231	-709.35138	1341.64246	-1205.66663	-764.30469	1133.58496	-1224.28809	-820.55121	1039.91113	-1227.14734	-915.73590	943.68329	-1196.76660	-1003.07147	899.05945	-1228.90466	-978.16730	864.73254	-1230.21497	-1046.20544	840.50641	-868.70544	-843.25220	927.42230	-1098.20056	-794.79150	916.45605	-880.24854	-674.49939	939.03723	-1027.57129	-645.46588	941.79132	-815.30011	-873.98529	634.01837	-864.96130	-936.25684	473.01834	-860.21021	-912.81622	272.01605	-902.94220	-906.41748	64.92052	-936.68091	-863.72736	31.84535	-930.13751	-1056.57141	31.37291	-1142.50537	-712.19794	620.41418	-1127.47339	-708.93115	439.23071	-1109.22949	-556.14581	317.51349	-1046.80957	-403.58255	171.62836	-987.96179	-365.50467	189.96812	-1021.12170	-445.77512	32.80500	-941.39337	-686.90387	1653.12036																					 
